<?xml version="1.0" encoding="UTF-8"?><svg xmlns="http://www.w3.org/2000/svg" viewBox="0 0 62 61.99"><defs><style>.d{fill:#f6c10d;}</style></defs><g id="a"/><g id="b"><g id="c"><g><path class="d" d="M54.12,56.59c-.38-.27-.81-.5-1.13-.83C37.38,40.17,21.78,24.57,6.18,8.96c-.31-.31-.62-.6-.9-.93-.74-.88-.71-2.01,.06-2.76,.76-.74,1.89-.74,2.76,.03,.41,.36,.79,.77,1.18,1.16,15.55,15.55,31.09,31.09,46.64,46.64,.28,.28,.49,.62,.73,.93l.39-.12v-1.29c0-16.2,0-32.41,0-48.61,0-.51,0-1.03,.11-1.52,.24-1.01,.94-1.53,1.98-1.48,1.04,.05,1.66,.65,1.83,1.67,.06,.38,.03,.78,.03,1.18,0,18.09,0,36.18,0,54.28,0,2.32-.53,2.86-2.82,2.86-18.13,0-36.26,0-54.39,0-.31,0-.63,.01-.94-.02-1.06-.1-1.77-.81-1.83-1.81-.07-1.06,.58-1.89,1.67-2.07,.46-.08,.94-.06,1.41-.06,16.13,0,32.25,0,48.38,0h1.4l.26-.43Z"/><path class="d" d="M3.38,61.99c-.21,0-.42,0-.63-.02-1.54-.15-2.64-1.25-2.74-2.74-.1-1.58,.93-2.86,2.51-3.12,.48-.08,.94-.08,1.38-.08H51.83C37.24,41.44,22.66,26.86,8.07,12.27l-2.82-2.81c-.26-.25-.51-.51-.75-.78-1.07-1.28-1.02-3.01,.12-4.12,1.14-1.1,2.87-1.1,4.12,0,.32,.28,.62,.59,.92,.9l4.19,4.19c14.06,14.05,28.11,28.11,42.16,42.17v-6.14c0-13.89,0-27.78,0-41.67,0-.59,0-1.18,.14-1.76C56.54,.77,57.68-.06,59.18,0c1.48,.07,2.51,1.01,2.77,2.5,.06,.38,.06,.75,.05,1.07V58.12c0,2.89-.97,3.86-3.82,3.86H3.58c-.07,0-.14,0-.2,0Zm.32-3.96c-.31,0-.59,0-.85,.05-.57,.09-.87,.47-.84,1.02,.04,.69,.6,.85,.93,.88,.21,.02,.42,.01,.63,.01H58.17c1.73,0,1.82-.09,1.82-1.86V3.54c0-.26,.01-.5-.02-.7-.11-.66-.44-.81-.89-.84-.56-.04-.83,.17-.96,.71-.08,.35-.08,.76-.08,1.21,0,13.97,0,27.86,0,41.75v8.96l-1.75,.56-.43-.55c-.08-.11-.17-.22-.25-.33-.13-.18-.25-.35-.4-.51C40.96,39.56,26.7,25.31,12.45,11.06l-4.2-4.21c-.27-.27-.53-.54-.81-.79-.48-.42-1.02-.44-1.41-.06-.39,.38-.39,.92,.01,1.4,.19,.23,.4,.43,.62,.64l2.83,2.83c14.73,14.74,29.47,29.47,44.21,44.2,.15,.15,.37,.29,.6,.45,.14,.09,.27,.18,.41,.27l.75,.54-1.02,1.71H3.7Z"/></g></g></g></svg>