<?xml version="1.0" encoding="UTF-8"?><svg xmlns="http://www.w3.org/2000/svg" viewBox="0 0 22.36 24"><defs><style>.d{fill:#5d677f;}</style></defs><g id="a"/><g id="b"><g id="c"><g><path class="d" d="M22.34,7c-.01-2.11-1.33-3.88-3.27-4.52-.68-.22-1.38-.24-2.08-.22-.24,0-.31-.07-.3-.31,.02-.44,.01-.88,0-1.32-.02-.39-.35-.67-.72-.63-.36,.04-.6,.32-.6,.73,0,.5,0,.99,0,1.5H6.96c0-.52,0-1.01,0-1.5,0-.44-.27-.73-.66-.74-.38,0-.67,.29-.68,.72,0,.4-.02,.8,0,1.2,.01,.26-.05,.35-.33,.34-.43-.01-.87-.02-1.29,.05C1.61,2.71,0,4.63,0,7.08c0,4.03,0,8.06,0,12.09,0,2.75,2.06,4.83,4.81,4.83,4.25,0,8.5,0,12.75,0,2.68,0,4.76-2.01,4.78-4.7,.03-4.1,.02-8.2,0-12.3ZM2.06,4.89c.66-.8,1.5-1.24,2.53-1.29,.33-.01,.66,0,1.02,0,0,.48,0,.94,0,1.39,0,.15,0,.3,.06,.44,.1,.29,.41,.45,.73,.39,.32-.05,.54-.31,.55-.65,.01-.51,0-1.02,0-1.55H15.36c0,.5,0,1,0,1.51,0,.34,.19,.6,.48,.68,.42,.12,.83-.15,.85-.6,.02-.42,0-.84,.01-1.26,0-.11,0-.22,0-.32,2.71-.41,4.23,1.44,4.26,3.21,0,.59,0,1.18,0,1.78H1.36c0-1.29-.21-2.61,.71-3.73Zm18.94,5.4c0,2.97,0,5.94,0,8.91,0,1.69-1.15,3.08-2.79,3.39-.26,.05-.54,.06-.81,.06-4.17,0-8.34,0-12.51,0-1.79,0-3.15-1.07-3.49-2.73-.05-.24-.06-.5-.07-.75,0-2.98,0-5.96,0-8.94,0-.07,0-.14,.01-.23H21v.29Z"/><path class="d" d="M5.45,18.71c.09,0,.18,0,.27,0,3.62,0,7.23,0,10.85,0,.1,0,.2,0,.3,0,.36-.04,.61-.33,.6-.7-.01-.4-.27-.63-.74-.64-1.86,0-3.72,0-5.58,0-1.44,0-2.88,0-4.32,0-.46,0-.92,0-1.38,0-.37,.01-.64,.31-.65,.66,0,.35,.27,.64,.64,.67Z"/><path class="d" d="M7.64,14.93c2.37,0,4.73,0,7.1,0,.14,0,.28,0,.41-.04,.3-.08,.48-.34,.47-.65,0-.3-.19-.54-.48-.62-.12-.03-.26-.04-.38-.04-1.19,0-2.38,0-3.57,0s-2.38,0-3.57,0c-.58,0-.91,.25-.9,.68,0,.43,.33,.67,.91,.67Z"/></g></g></g></svg>