<?xml version="1.0" encoding="UTF-8"?><svg xmlns="http://www.w3.org/2000/svg" viewBox="0 0 24 24"><defs><style>.d{fill:#5d677f;}</style></defs><g id="a"/><g id="b"><g id="c"><g><path class="d" d="M12.01,0c6.63,0,12,5.39,11.99,12.02-.01,6.61-5.4,11.99-12.01,11.98C5.36,23.99-.01,18.6,0,11.98,.01,5.36,5.4,0,12.01,0ZM1.35,12c0,5.87,4.76,10.64,10.64,10.65,5.88,.01,10.66-4.77,10.66-10.65,0-5.88-4.76-10.64-10.64-10.65-5.88-.01-10.66,4.77-10.66,10.65Z"/><path class="d" d="M11.33,7.81c0-1.38,0-2.76,0-4.14,0-.4,.21-.68,.55-.73,.4-.07,.76,.2,.79,.61,0,.09,0,.18,0,.26,0,2.55,0,5.1,0,7.65,0,.17,.05,.29,.18,.42,1.39,1.33,2.78,2.66,4.16,4.01,.14,.14,.25,.36,.28,.55,.05,.25-.1,.47-.33,.59-.24,.13-.48,.12-.71-.03-.09-.06-.17-.14-.25-.22-1.45-1.4-2.9-2.79-4.36-4.18-.23-.22-.32-.45-.32-.77,0-1.34,0-2.68,0-4.02Z"/></g></g></g></svg>