<?xml version="1.0" encoding="UTF-8"?><svg xmlns="http://www.w3.org/2000/svg" viewBox="0 0 245 300.55"><defs><style>.d{fill:#f6c10d;}.e{fill:none;font-family:Poppins-Bold, Poppins Bold;font-size:75px;letter-spacing:0em;stroke:#fff;stroke-miterlimit:10;stroke-width:2px;}.f{fill:#0080ff;}</style></defs><g id="a"/><g id="b"><g id="c"><rect class="f" y="132.6" width="245" height="31"/><text class="e" transform="translate(4.21 63.78)"><tspan x="0" y="0">MI </tspan><tspan x="0" y="84.02">PERFIL</tspan></text><path class="d" d="M105.57,272.38c-.05-.05-.1-.09-.15-.14-8.15-8.16-16.3-16.32-24.43-24.47-.02-.03-.05-.08-.1-.15l-.94-1.4-4.64,4.91,19.24,19.17H6.45c-.18,0-.36,.01-.53,.02l-1.28,.07v6.18l90.09,.02-19.28,19.14,4.42,4.85,1.04-1.33c.05-.06,.09-.12,.14-.17,8.12-8.14,16.25-16.28,24.37-24.41,.05-.05,.11-.1,.24-.21l.5-.55v-.99l-.57-.51Z"/></g></g></svg>