<?xml version="1.0" encoding="UTF-8"?><svg xmlns="http://www.w3.org/2000/svg" viewBox="0 0 185.5 54.34"><defs><style>.d{fill:#f6c10d;}</style></defs><g id="a"/><g id="b"><g id="c"><path class="d" d="M184.93,26.16c-.05-.05-.1-.09-.15-.14-8.15-8.16-16.3-16.32-24.43-24.47-.02-.03-.05-.08-.1-.15l-.94-1.4-4.64,4.91,19.24,19.17H1.82c-.18,0-.36,.01-.53,.02l-1.28,.07v6.18l174.09,.02-19.28,19.14,4.42,4.85,1.04-1.33c.05-.06,.09-.12,.14-.17,8.12-8.14,16.25-16.28,24.37-24.41,.05-.05,.11-.1,.24-.21l.5-.55v-.99l-.57-.51Z"/></g></g></svg>