<?xml version="1.0" encoding="UTF-8"?><svg xmlns="http://www.w3.org/2000/svg" viewBox="0 0 61 60.99"><defs><style>.d{fill:#fff;stroke:#fff;stroke-miterlimit:10;}</style></defs><g id="a"/><g id="b"><g id="c"><path class="d" d="M53.62,56.09c-.38-.27-.81-.5-1.13-.83C36.88,39.67,21.28,24.07,5.68,8.47c-.31-.31-.62-.6-.9-.93-.74-.88-.71-2.01,.06-2.76,.76-.74,1.89-.74,2.76,.03,.41,.36,.79,.77,1.18,1.16,15.55,15.55,31.09,31.09,46.64,46.64,.28,.28,.49,.62,.73,.93l.39-.12v-1.29c0-16.2,0-32.41,0-48.61,0-.51,0-1.03,.11-1.52,.24-1.01,.94-1.53,1.98-1.48,1.04,.05,1.66,.65,1.83,1.67,.06,.38,.03,.78,.03,1.18,0,18.09,0,36.18,0,54.28,0,2.32-.53,2.86-2.82,2.86-18.13,0-36.26,0-54.39,0-.31,0-.63,.01-.94-.02-1.06-.1-1.77-.81-1.83-1.81-.07-1.06,.58-1.89,1.67-2.07,.46-.08,.94-.06,1.41-.06,16.13,0,32.25,0,48.38,0h1.4l.26-.43Z"/></g></g></svg>