<?xml version="1.0" encoding="UTF-8"?><svg xmlns="http://www.w3.org/2000/svg" viewBox="0 0 34.75 30.98"><defs><style>.d{fill:#0080ff;}</style></defs><g id="a"/><g id="b"><g id="c"><path class="d" d="M33.88,0H.88C.39,0,0,.39,0,.88V24.39c0,.48,.39,.88,.88,.88H14.65v3.29h-2.62c-.48,0-.88,.39-.88,.88v.68c0,.48,.39,.88,.88,.88h10.69c.48,0,.88-.39,.88-.88v-.7c0-.48-.39-.88-.88-.88h-2.56v-3.28h13.71c.48,0,.88-.39,.88-.88V.88c0-.48-.39-.88-.88-.88ZM17.66,25.29v3.23h-.51v-3.23h.51Zm-15.2-2.51V2.47h29.83V22.78H2.46Z"/></g></g></svg>