<?xml version="1.0" encoding="UTF-8"?><svg xmlns="http://www.w3.org/2000/svg" viewBox="0 0 155.04 155.04"><defs><style>.d{fill:#fff;}.e{fill:#0080ff;}</style></defs><g id="a"/><g id="b"><g id="c"><rect class="e" width="155.04" height="155.04"/><path class="d" d="M111.87,44.81c-.24-1.4-1.13-2.22-2.51-2.28-1.39-.08-2.4,.67-2.73,2.03-.14,.58-.14,1.18-.14,1.76v.1c0,16.6,0,33.2,0,49.8v7.15c-.17-.23-.34-.46-.55-.67-17.91-17.92-35.83-35.84-53.75-53.75l-.36-.36c-.33-.34-.67-.68-1.02-.99-1.17-1.03-2.72-1.03-3.77-.02-1.06,1.03-1.1,2.57-.1,3.77,.26,.3,.54,.58,.82,.86l2.4,2.4c17.26,17.26,34.52,34.52,51.79,51.78,.29,.29,.62,.5,.94,.71H45.67c-.47,0-.97,0-1.46,.08-1.46,.24-2.38,1.38-2.29,2.84,.09,1.38,1.07,2.35,2.5,2.49,.22,.02,.44,.03,.67,.03,.08,0,.15,0,.23,0h62.92c2.89,0,3.68-.8,3.68-3.73V45.91c.01-.36,.02-.73-.04-1.1Z"/></g></g></svg>