<?xml version="1.0" encoding="UTF-8"?><svg xmlns="http://www.w3.org/2000/svg" viewBox="0 0 22.36 24"><defs><style>.d{fill:#f6c10d;}</style></defs><g id="a"/><g id="b"><g id="c"><g><path class="d" d="M6.96,2.24H15.36c0-.51,0-1.01,0-1.5,0-.41,.24-.69,.6-.73,.37-.04,.71,.24,.72,.63,.02,.44,.02,.88,0,1.32,0,.23,.06,.31,.3,.31,.7-.02,1.4,0,2.08,.22,1.94,.64,3.26,2.41,3.27,4.52,.02,4.1,.03,8.2,0,12.3-.02,2.68-2.1,4.69-4.78,4.7-4.25,0-8.5,0-12.75,0C2.06,23.99,0,21.92,0,19.16c0-4.03,0-8.06,0-12.09C0,4.63,1.61,2.71,4.01,2.31c.42-.07,.86-.06,1.29-.05,.27,0,.34-.08,.33-.34-.02-.4-.01-.8,0-1.2C5.63,.29,5.92,0,6.3,0c.39,0,.66,.3,.66,.74,0,.49,0,.98,0,1.5Zm14.05,7.76H1.36c0,.1-.01,.16-.01,.23,0,2.98,0,5.96,0,8.94,0,.25,.02,.5,.07,.75,.34,1.66,1.69,2.73,3.49,2.73,4.17,0,8.34,0,12.51,0,.27,0,.54-.01,.81-.06,1.63-.31,2.78-1.7,2.79-3.39,0-2.97,0-5.94,0-8.91,0-.09,0-.18,0-.29ZM5.62,3.6c-.36,0-.69-.01-1.02,0-1.04,.05-1.88,.49-2.53,1.29-.91,1.12-.7,2.44-.71,3.73H20.96c0-.6,0-1.19,0-1.78-.03-1.76-1.56-3.61-4.26-3.21,0,.1,0,.21,0,.32,0,.42,.01,.84-.01,1.26-.02,.44-.43,.72-.85,.6-.29-.08-.47-.34-.48-.68,0-.51,0-1.01,0-1.51H6.96c0,.53,0,1.04,0,1.55,0,.35-.23,.6-.55,.65-.32,.05-.62-.1-.73-.39-.05-.14-.05-.29-.06-.44,0-.46,0-.91,0-1.39Z"/><path class="d" d="M11.15,17.38c1.86,0,3.72,0,5.58,0,.47,0,.73,.23,.74,.64,.01,.37-.24,.66-.6,.7-.1,.01-.2,0-.3,0-3.62,0-7.23,0-10.85,0-.09,0-.18,0-.27,0-.36-.03-.64-.32-.64-.67,0-.35,.27-.64,.65-.66,.46-.02,.92,0,1.38,0,1.44,0,2.88,0,4.32,0Z"/><path class="d" d="M11.19,13.57c1.19,0,2.38,0,3.57,0,.13,0,.26,0,.38,.04,.29,.08,.47,.32,.48,.62,0,.31-.17,.57-.47,.65-.13,.04-.28,.04-.41,.04-2.37,0-4.73,0-7.1,0-.58,0-.91-.24-.91-.67,0-.43,.33-.68,.9-.68,1.19,0,2.38,0,3.57,0Z"/></g></g></g></svg>