<?xml version="1.0" encoding="UTF-8"?><svg xmlns="http://www.w3.org/2000/svg" viewBox="0 0 717 429.45"><defs><style>.d{fill:#fff;}.d,.e{font-family:Poppins-Bold, Poppins Bold;font-size:102.57px;}.f{letter-spacing:.02em;}.g{fill:#f6c10d;}.e{fill:none;stroke:#fff;stroke-linecap:round;stroke-linejoin:round;stroke-width:2.5px;}.e,.h{letter-spacing:0em;}.i{letter-spacing:-.02em;}.j{fill:#0080ff;}.k{letter-spacing:-.02em;}.l{letter-spacing:0em;}</style></defs><g id="a"/><g id="b"><g id="c"><text class="e" transform="translate(14.79 87.1)"><tspan x="0" y="0">MIS</tspan></text><g><path class="g" d="M69,424.05c-.38-.27-.81-.5-1.13-.83-15.61-15.59-31.21-31.2-46.81-46.8-.31-.31-.62-.6-.9-.93-.74-.88-.71-2.01,.06-2.76,.76-.74,1.89-.74,2.76,.03,.41,.36,.79,.77,1.18,1.16,15.55,15.55,31.09,31.09,46.64,46.64,.28,.28,.49,.62,.73,.93l.39-.12v-1.29c0-16.2,0-32.41,0-48.61,0-.51,0-1.03,.11-1.52,.24-1.01,.94-1.53,1.98-1.48,1.04,.05,1.66,.65,1.83,1.67,.06,.38,.03,.78,.03,1.18,0,18.09,0,36.18,0,54.28,0,2.32-.53,2.86-2.82,2.86-18.13,0-36.26,0-54.39,0-.31,0-.63,.01-.94-.02-1.06-.1-1.77-.81-1.83-1.81-.07-1.06,.58-1.89,1.67-2.07,.46-.08,.94-.06,1.41-.06,16.13,0,32.25,0,48.38,0h1.4l.26-.43Z"/><path class="g" d="M18.25,429.45c-.21,0-.42,0-.63-.02-1.54-.15-2.64-1.25-2.74-2.74-.1-1.58,.93-2.86,2.51-3.12,.48-.08,.94-.08,1.38-.08h47.94c-14.59-14.58-29.18-29.17-43.76-43.75l-2.82-2.81c-.26-.25-.51-.51-.75-.78-1.07-1.28-1.02-3.01,.12-4.12,1.14-1.1,2.87-1.1,4.12,0,.32,.28,.62,.59,.92,.9l4.19,4.19c14.06,14.05,28.11,28.11,42.16,42.17v-6.14c0-13.89,0-27.78,0-41.67,0-.59,0-1.18,.14-1.76,.36-1.48,1.5-2.31,3-2.24,1.48,.07,2.51,1.01,2.77,2.5,.06,.38,.06,.75,.05,1.07v54.55c0,2.89-.97,3.86-3.82,3.86H18.45c-.07,0-.14,0-.2,0Zm.32-3.96c-.31,0-.59,0-.85,.05-.57,.09-.87,.47-.84,1.02,.04,.69,.6,.85,.93,.88,.21,.02,.42,.01,.63,.01h54.61c1.73,0,1.82-.09,1.82-1.86v-54.59c0-.26,.01-.5-.02-.7-.11-.66-.44-.81-.89-.84-.56-.04-.83,.17-.96,.71-.08,.35-.08,.76-.08,1.21,0,13.97,0,27.86,0,41.75v8.96l-1.75,.56-.43-.55c-.08-.11-.17-.22-.25-.33-.13-.18-.25-.35-.4-.51-14.25-14.25-28.5-28.5-42.75-42.75l-4.2-4.21c-.27-.27-.53-.54-.81-.79-.48-.42-1.02-.44-1.41-.06-.39,.38-.39,.92,.01,1.4,.19,.23,.4,.43,.62,.64l2.83,2.83c14.73,14.74,29.47,29.47,44.21,44.2,.15,.15,.37,.29,.6,.45,.14,.09,.27,.18,.41,.27l.75,.54-1.02,1.71H18.57Z"/></g><rect class="j" y="178.08" width="717" height="37"/><text class="d" transform="translate(15.79 193.98)"><tspan class="k" x="0" y="0">A</tspan><tspan class="f" x="60.72" y="0">C</tspan><tspan class="l" x="122.57" y="0">TIVI</tspan><tspan class="i" x="277.76" y="0">D</tspan><tspan class="h" x="344.12" y="0">ADES</tspan></text></g></g></svg>