<?xml version="1.0" encoding="UTF-8"?><svg xmlns="http://www.w3.org/2000/svg" viewBox="0 0 382 211.55"><defs><style>.d{letter-spacing:0em;}.e{fill:#f6c10d;}.f{fill:none;font-family:Poppins-Bold, Poppins Bold;font-size:75px;stroke:#fff;stroke-miterlimit:10;stroke-width:2px;}.g{letter-spacing:0em;}.h{fill:#0080ff;}</style></defs><g id="a"/><g id="b"><g id="c"><rect class="h" y="48.6" width="382" height="31"/><text class="f" transform="translate(8.98 63.78)"><tspan class="g" x="0" y="0">REGIST</tspan><tspan class="d" x="215.62" y="0">R</tspan><tspan class="g" x="255.82" y="0">O</tspan></text><path class="e" d="M110.33,183.38c-.05-.05-.1-.09-.15-.14-8.15-8.16-16.3-16.32-24.43-24.47-.02-.03-.05-.08-.1-.15l-.94-1.4-4.64,4.91,19.24,19.17H11.21c-.18,0-.36,.01-.53,.02l-1.28,.07v6.18l90.09,.02-19.28,19.14,4.42,4.85,1.04-1.33c.05-.06,.09-.12,.14-.17,8.12-8.14,16.25-16.28,24.37-24.41,.05-.05,.11-.1,.24-.21l.5-.55v-.99l-.57-.51Z"/></g></g></svg>