<?xml version="1.0" encoding="UTF-8"?><svg xmlns="http://www.w3.org/2000/svg" viewBox="0 0 41.93 45"><defs><style>.d{fill:#0258a0;}</style></defs><g id="a"/><g id="b"><g id="c"><g><path class="d" d="M41.89,13.12c-.02-3.96-2.49-7.28-6.13-8.48-1.27-.42-2.58-.45-3.89-.41-.45,.02-.58-.13-.56-.57,.03-.82,.03-1.65,0-2.47-.03-.74-.66-1.26-1.36-1.18-.68,.08-1.13,.6-1.13,1.38,0,.93,0,1.86,0,2.82H13.05c0-.98,0-1.89,0-2.81,0-.82-.51-1.37-1.24-1.39-.72-.01-1.25,.54-1.27,1.35-.02,.75-.03,1.5,0,2.25,.02,.48-.1,.66-.62,.64-.8-.02-1.62-.04-2.41,.09C3.02,5.09,0,8.69,0,13.27c0,7.56,0,15.11,0,22.67,0,5.16,3.86,9.05,9.02,9.06,7.97,.01,15.94,.01,23.9,0,5.03,0,8.93-3.78,8.96-8.81,.06-7.69,.04-15.37,0-23.06ZM3.87,9.17c1.23-1.51,2.81-2.33,4.75-2.42,.61-.03,1.23,0,1.91,0,0,.9,0,1.76,0,2.61,0,.28,.01,.57,.1,.83,.19,.55,.77,.84,1.37,.74,.59-.1,1.02-.58,1.03-1.22,.02-.96,0-1.91,0-2.91h15.76c0,.93,0,1.88,0,2.83,0,.65,.36,1.13,.9,1.28,.79,.22,1.55-.29,1.59-1.12,.04-.79,.02-1.57,.02-2.36,0-.2,0-.41,0-.6,5.07-.77,7.93,2.71,7.99,6.01,.02,1.1,0,2.2,0,3.33H2.54c.01-2.42-.39-4.9,1.33-7Zm35.51,10.12c0,5.57,0,11.14,0,16.71,0,3.16-2.16,5.77-5.22,6.35-.49,.09-1.01,.11-1.51,.11-7.82,0-15.64,0-23.46,0-3.36,0-5.91-2-6.54-5.12-.09-.46-.12-.93-.12-1.4,0-5.59,0-11.17,0-16.76,0-.13,.02-.26,.03-.44H39.38v.54Z"/><path class="d" d="M10.21,35.09c.17,.01,.34,0,.51,0,6.78,0,13.57,0,20.35,0,.19,0,.38,0,.56-.01,.68-.08,1.15-.62,1.13-1.31-.02-.76-.51-1.19-1.39-1.19-3.49,0-6.97,0-10.46,0-2.7,0-5.4,0-8.09,0-.86,0-1.72-.02-2.59,.02-.7,.03-1.21,.57-1.21,1.23,0,.65,.51,1.2,1.2,1.26Z"/><path class="d" d="M14.32,27.99c4.44,0,8.88,0,13.31,0,.26,0,.53-.02,.78-.08,.56-.15,.89-.64,.88-1.22-.01-.55-.35-1.01-.89-1.15-.23-.06-.48-.07-.72-.07-2.23,0-4.46,0-6.68,0s-4.46,0-6.68,0c-1.09,0-1.7,.47-1.7,1.28,0,.81,.62,1.26,1.71,1.26Z"/></g></g></g></svg>