<?xml version="1.0" encoding="UTF-8"?><svg xmlns="http://www.w3.org/2000/svg" viewBox="0 0 35.84 46"><defs><style>.d{fill:#0080ff;stroke:#0080ff;stroke-miterlimit:10;}</style></defs><g id="a"/><g id="b"><g id="c"><g><path class="d" d="M35.04,14.61C33.36,6.45,26.28,.61,17.95,.5c-1.17,.14-2.37,.19-3.52,.45C8.24,2.36,3.92,6.04,1.62,11.95c-1.36,3.5-1.56,7.07-.15,10.65,.97,2.47,2.2,4.8,3.61,7.04,3.48,5.51,7.58,10.54,11.99,15.31,.67,.73,1.07,.72,1.75,0,2.78-2.98,5.4-6.1,7.85-9.35,2.71-3.6,5.23-7.33,7.11-11.45,1.4-3.06,1.96-6.2,1.27-9.54Zm-3.11,9.29c-1.72,3.62-3.91,6.96-6.37,10.11-2.35,3-4.84,5.89-7.28,8.83-.1,.12-.22,.23-.41,.43-1.66-1.96-3.3-3.84-4.88-5.77-2.78-3.41-5.42-6.91-7.57-10.76-.86-1.55-1.62-3.16-2.3-4.8-1.2-2.89-1.07-5.85-.05-8.74C5.16,7.27,9.33,3.68,15.5,2.58c8.25-1.47,16.44,4.45,17.85,12.71,.52,3.07-.11,5.87-1.41,8.61Z"/><path class="d" d="M17.91,10.54c-4.13,.02-7.45,3.37-7.42,7.5,.03,4.07,3.37,7.42,7.42,7.41,4.09,0,7.5-3.41,7.48-7.47-.02-4.14-3.35-7.46-7.48-7.44Zm.06,13.12c-3.19-.06-5.77-2.69-5.69-5.82,.08-3.13,2.67-5.56,5.86-5.49,3.04,.06,5.52,2.68,5.46,5.75-.06,3.03-2.68,5.61-5.64,5.56Z"/></g></g></g></svg>