<?xml version="1.0" encoding="UTF-8"?><svg xmlns="http://www.w3.org/2000/svg" viewBox="0 0 39.06 45"><defs><style>.d{fill:#0080ff;}</style></defs><g id="a"/><g id="b"><g id="c"><path class="d" d="M13.39,19.15c1.11,2.24,1.09,4.46,0,6.71,.32,.18,.62,.36,.92,.53,3.95,2.19,7.91,4.38,11.86,6.58,.32,.18,.5,.21,.8-.09,2.2-2.21,5.43-2.73,8.17-1.35,2.77,1.39,4.28,4.31,3.85,7.46-.4,2.88-2.79,5.33-5.74,5.88-5.25,.98-9.7-4.13-8-9.2,.04-.13,.08-.27,.13-.44-.66-.37-1.32-.74-1.98-1.11-3.68-2.04-7.35-4.08-11.02-6.13-.33-.18-.54-.22-.87,.05-2.28,1.86-5.52,2.05-8.06,.51C.91,27.04-.44,24.04,.13,21.19c.58-2.93,2.87-5.19,5.76-5.68,2.1-.35,3.98,.15,5.64,1.47,.2,.16,.35,.27,.64,.11,4.33-2.42,8.67-4.82,13.01-7.23,.05-.03,.08-.06,.16-.11-.36-1.06-.55-2.16-.44-3.3C25.22,2.98,28.02,.27,31.56,.02c3.35-.24,6.56,2.16,7.31,5.48,.71,3.11-.7,6.29-3.48,7.82-2.8,1.55-6.16,1.07-8.46-1.21-.2-.19-.33-.34-.66-.16-4.22,2.36-8.45,4.71-12.68,7.05-.06,.03-.11,.08-.22,.15ZM36.69,7.11c0-2.64-2.08-4.73-4.72-4.72-2.64,0-4.72,2.08-4.72,4.72,0,2.64,2.09,4.72,4.72,4.73,2.64,0,4.72-2.09,4.72-4.72Zm-4.74,35.5c2.64,0,4.73-2.07,4.74-4.71,0-2.64-2.08-4.73-4.71-4.74-2.64,0-4.73,2.08-4.74,4.71,0,2.64,2.07,4.73,4.71,4.74ZM2.39,22.49c0,2.62,2.1,4.74,4.72,4.75,2.62,0,4.73-2.11,4.73-4.73,0-2.63-2.1-4.74-4.72-4.75-2.61,0-4.72,2.11-4.73,4.73Z"/></g></g></svg>