<?xml version="1.0" encoding="UTF-8"?><svg xmlns="http://www.w3.org/2000/svg" viewBox="0 0 40 40"><defs><style>.d{fill:#fff;}</style></defs><g id="a"/><g id="b"><g id="c"><g><path class="d" d="M20,0c11.03,0,20.01,8.99,20,20.02-.01,11.01-8.99,19.98-20,19.98C8.97,40,0,31.01,0,19.98,0,8.97,8.99,0,20,0Zm12.43,32.81c4.96-4.68,7.08-12.49,4.06-19.74C33.56,6,26.22,1.53,18.59,2.16c-7.91,.65-14.34,6.25-16.08,14.13-1.51,6.82,1.35,13.21,5.12,16.53,.02-.11,.05-.21,.06-.32,.14-1.06,.43-2.08,.93-3.01,2.27-4.27,5.99-6.25,10.66-6.65,1.77-.15,3.51,.13,5.18,.74,3.41,1.23,5.98,3.39,7.32,6.83,.3,.77,.44,1.6,.66,2.4Zm-12.48,5.07c3.81-.04,7.14-1.26,10.03-3.67,.25-.21,.34-.42,.32-.74-.13-1.9-.83-3.56-2.1-4.98-3.77-4.23-10.75-4.76-15.22-1.14-1.96,1.59-3.14,3.61-3.3,6.17-.02,.27,.05,.46,.27,.65,2.9,2.45,6.25,3.68,10,3.72Z"/><path class="d" d="M20.01,21.45c-3.69,0-6.48-2.79-6.49-6.51-.01-3.72,2.79-6.54,6.5-6.54,3.69,0,6.48,2.82,6.47,6.53,0,3.72-2.79,6.52-6.48,6.52Zm4.37-6.52c0-2.57-1.84-4.44-4.38-4.43-2.53,0-4.36,1.85-4.37,4.4,0,2.57,1.82,4.44,4.36,4.45,2.53,0,4.38-1.86,4.39-4.42Z"/></g></g></g></svg>