<?xml version="1.0" encoding="UTF-8"?><svg xmlns="http://www.w3.org/2000/svg" viewBox="0 0 45 45"><defs><style>.d{fill:#0258a0;}</style></defs><g id="a"/><g id="b"><g id="c"><g><path class="d" d="M22.5,0c12.41,0,22.51,10.11,22.5,22.52-.01,12.39-10.12,22.48-22.5,22.48C10.09,45-.01,34.88,0,22.47,.01,10.09,10.11,0,22.5,0Zm13.99,36.91c5.59-5.26,7.96-14.06,4.57-22.21C37.75,6.75,29.5,1.72,20.91,2.43,12.01,3.16,4.78,9.47,2.82,18.33c-1.7,7.67,1.52,14.86,5.76,18.6,.02-.13,.05-.24,.07-.36,.15-1.19,.48-2.33,1.04-3.39,2.55-4.8,6.74-7.03,11.99-7.48,1.99-.17,3.95,.15,5.83,.83,3.84,1.38,6.73,3.81,8.23,7.68,.34,.86,.5,1.8,.74,2.7Zm-14.04,5.7c4.29-.05,8.03-1.42,11.28-4.13,.28-.24,.39-.47,.36-.83-.14-2.14-.94-4.01-2.36-5.61-4.24-4.76-12.1-5.35-17.12-1.28-2.21,1.79-3.53,4.06-3.71,6.94-.02,.31,.06,.52,.3,.73,3.27,2.75,7.03,4.14,11.25,4.19Z"/><path class="d" d="M22.51,24.14c-4.15,0-7.29-3.14-7.31-7.32-.01-4.19,3.14-7.36,7.32-7.36,4.15,0,7.29,3.17,7.28,7.34,0,4.18-3.14,7.33-7.29,7.33Zm4.91-7.33c0-2.89-2.07-4.99-4.92-4.98-2.84,0-4.9,2.09-4.91,4.95,0,2.89,2.05,5,4.9,5.01,2.85,0,4.93-2.09,4.94-4.97Z"/></g></g></g></svg>